inDegrees=no
num_controls=7
num_derivatives=13
num_iterations=157
num_multipliers=7
num_parameters=0
num_slacks=7
num_states=26
objective=0.545124
objective_accelerations=0.042408
objective_balance=0.003953
objective_effort=0.041322
objective_height=0.447989
objective_ligament=0.009451
solver_duration=1647.204630
status=Solve_Succeeded
success=true
DataType=double
version=3
OpenSimVersion=4.5
endheader
time	/jointset/ground_pelvis/pelvis_tilt/value	/jointset/ground_pelvis/pelvis_tx/value	/jointset/ground_pelvis/pelvis_ty/value	/jointset/hip_r/hip_flexion_r/value	/jointset/hip_r/hip_adduction_r/value	/jointset/hip_r/hip_rotation_r/value	/jointset/back/lumbar_extension/value	/jointset/patellofemoral_r/patellar_flexion_r/value	/jointset/knee_r/knee_flexion_r/value	/jointset/knee_r/knee_adduction_r/value	/jointset/knee_r/knee_rotation_r/value	/jointset/ankle_r/ankle_angle_r/value	/jointset/subtalar_r/subtalar_angle_r/value	/jointset/ground_pelvis/pelvis_tilt/speed	/jointset/ground_pelvis/pelvis_tx/speed	/jointset/ground_pelvis/pelvis_ty/speed	/jointset/hip_r/hip_flexion_r/speed	/jointset/hip_r/hip_adduction_r/speed	/jointset/hip_r/hip_rotation_r/speed	/jointset/back/lumbar_extension/speed	/jointset/patellofemoral_r/patellar_flexion_r/speed	/jointset/knee_r/knee_flexion_r/speed	/jointset/knee_r/knee_adduction_r/speed	/jointset/knee_r/knee_rotation_r/speed	/jointset/ankle_r/ankle_angle_r/speed	/jointset/subtalar_r/subtalar_angle_r/speed	/forceset/tau_hip_flexion_r	/forceset/tau_hip_adduction_r	/forceset/tau_hip_rotation_r	/forceset/tau_knee_flexion_r	/forceset/tau_ankle_angle_r	/forceset/tau_subtalar_angle_r	/forceset/tau_lumbar_extension	lambda_cid13_p0	lambda_cid14_p0	lambda_cid14_p1	lambda_cid14_p2	lambda_cid14_p3	lambda_cid14_p4	lambda_cid14_p5	/jointset/ground_pelvis/pelvis_tilt/accel	/jointset/ground_pelvis/pelvis_tx/accel	/jointset/ground_pelvis/pelvis_ty/accel	/jointset/hip_r/hip_flexion_r/accel	/jointset/hip_r/hip_adduction_r/accel	/jointset/hip_r/hip_rotation_r/accel	/jointset/back/lumbar_extension/accel	/jointset/patellofemoral_r/patellar_flexion_r/accel	/jointset/knee_r/knee_flexion_r/accel	/jointset/knee_r/knee_adduction_r/accel	/jointset/knee_r/knee_rotation_r/accel	/jointset/ankle_r/ankle_angle_r/accel	/jointset/subtalar_r/subtalar_angle_r/accel	gamma_cid13_p0	gamma_cid14_p0	gamma_cid14_p1	gamma_cid14_p2	gamma_cid14_p3	gamma_cid14_p4	gamma_cid14_p5
1.5	-0.2387595226084801	0.0003841952882441753	0.8466068142783068	0.8921043772228849	-0.2252765403735793	-0.1423797802477468	-0.3075330646971173	0.65231199102524	0.6523119910249505	0.03673593662470755	0.1745266665700945	0.1660473350812884	0.03576873629890579	0.5852799011519586	0.2479904904597267	0.4098992405090319	-2.03102237318851	0.01141226236999693	-0.2912114147911087	0.6943037951637178	-1.743247795149416	-1.743247795149118	0.2770236736014916	-1.834429650695416e-05	-0.3775061476546004	-0.08206399843917445	-0.150722124201784	-0.02310799158359514	0.007801455041369349	-0.2919424435494503	0.1124042051235076	-0.008313566265952702	0.1806593938222327	-33.96872571668084	-5.495624235518412	-0.1817726003473883	-4.526691181867012	-3.057304330526915	-658.4229775257331	59.4767509878337	0.2985570331044811	0.5610624815871657	-0.4496727665457734	-1.214390488607474	0.004011560483488082	-0.5074346078311263	1.698891935025828	-1.10503707001305	-1.105037070013029	0.4571865282235464	0.00371632775486139	-0.3110633136353816	-0.04366436933609891	1.311295755225423e-07	1.909316144317089e-07	-4.341338227686437e-07	1.271555211002868e-06	-6.439387735186001e-08	2.666230842512469e-07	-4.33747469399554e-07
1.51	-0.2328923151185479	0.002891847164164494	0.8506824490732408	0.8717356531529578	-0.2251631676036917	-0.1453160846137116	-0.3005064375109744	0.6348266047417298	0.6348266047415011	0.03953131411027339	0.1745267389799776	0.1622569861219858	0.03494482445338312	0.5880771412521721	0.2535041582817304	0.405138466012221	-2.042436675086281	0.01126108532447599	-0.2960265803393686	0.7109152965190352	-1.753575001867068	-1.75357500186683	0.2820378485763884	2.266853202320282e-05	-0.380504727755768	-0.08270350478173344	-0.1426117941802237	-0.02457936991686599	0.007176007407542102	-0.2891751468491309	0.1142827863281981	-0.008982017188374578	0.1736641972851593	-34.87836677895849	-4.686492031187893	-0.2394959518342172	-4.621331065149478	-3.240473519630064	-654.0674717070491	59.48271859198995	0.257659528092436	0.5411471489159821	-0.502609047857254	-1.062058492993258	-0.0247202678936947	-0.4648995234958624	1.626327403847239	-0.9584217402628049	-0.9584217402718646	0.5214302402560843	0.003027259303770221	-0.2854094573648633	-0.07178509962725606	1.377116413588036e-07	1.978661172031803e-07	-4.768064925170597e-07	1.317342281248923e-06	-6.419084777674383e-08	2.840755073267525e-07	-4.802648812872253e-07
1.52	-0.2269996648216935	0.005453561361586574	0.854707810271885	0.8512613643735246	-0.2250513141904242	-0.148299809034193	-0.2933168856776663	0.6172455745375192	0.6172455745373508	0.04237641279721428	0.1745269682179277	0.15843842054187	0.03411497927785255	0.5903684625368982	0.2588029547600789	0.3998445212510601	-2.052135315089305	0.01110839104600176	-0.3006954256945269	0.7268887245968582	-1.762376579289581	-1.762376579289405	0.2869679138766172	1.302131662052325e-05	-0.3831494718172317	-0.08325066444075019	-0.134501464158664	-0.0260507482501344	0.006550559773717329	-0.2864078501488119	0.1161613675328895	-0.009650468110793257	0.1666690007480847	-35.75627927222089	-3.884832126675036	-0.2949189057202352	-4.720460667617783	-3.423765098572112	-649.8339017079596	59.56979791285212	0.1973732700069731	0.5180882128561167	-0.5563068194158139	-0.8712581096581378	0.003708113892825998	-0.4781705692107888	1.57127727952689	-0.7999112109852753	-0.7999112109853896	0.4403645932899591	-0.00641568103170225	-0.2402961056945871	-0.02519503262765304	1.460255889560606e-07	2.009252547432143e-07	-5.62311044605319e-07	1.336728827160804e-06	-5.708388217722378e-08	2.99445774303127e-07	-5.380090440890461e-07
1.53	-0.2210866704339038	0.008067152664483863	0.8586776340216393	0.8306986836541724	-0.224941019466071	-0.1513299087971433	-0.2859709245430921	0.5995841776270395	0.5995841776269856	0.04527019298680593	0.1745271925679174	0.1545952067802516	0.03328011498187812	0.5921401872146291	0.2638752399266586	0.3940374924888982	-2.060105417129039	0.01095446647857346	-0.3053095777840196	0.7421840923614453	-1.769641050562412	-1.769641050562286	0.2917566775044171	2.688387706138122e-05	-0.3854279816335922	-0.08369984556244429	-0.1262190356118897	-0.02778954345620921	0.005943917145132161	-0.2840108955344672	0.1185387857316689	-0.01049282386321643	0.1595447975493053	-36.59786951182583	-2.942594796606784	-0.4058270154843007	-4.805520779154508	-3.68444045583887	-645.7887933942599	59.62761526754347	0.1535577849955174	0.4957818027732453	-0.6052474066694197	-0.7155481029349697	-0.02424488060239297	-0.4505490843816828	1.490755031376905	-0.6504845719373409	-0.6504845719448931	0.4933718733962382	0.004799012600705806	-0.2118189763537798	-0.05139222305229983	1.561796609243758e-07	1.998668167248462e-07	-6.933244716796613e-07	1.328064815967628e-06	-4.264148455177471e-08	3.126037504241746e-07	-6.076816297371503e-07
1.54	-0.2151586616556707	0.01073026344588974	0.8625869181833614	0.8100651695440607	-0.2248321244150986	-0.1544056523921024	-0.2784755920295822	0.5818579821065297	0.5818579821065911	0.04821090873784929	0.1745274579011177	0.1507311698091202	0.03244143636046436	0.5933713406259421	0.2687068504617963	0.3877366036446082	-2.066301993240929	0.01082845636947503	-0.3098241920960401	0.7567630003841286	-1.775336301295456	-1.775336301295381	0.2963550261670646	2.121795825131511e-05	-0.3873141137198324	-0.08401352952861839	-0.1179366070651182	-0.02952833866228508	0.005337274516568515	-0.2816139409201237	0.1209162039304478	-0.01133517961564165	0.1524205943505236	-37.39854812892765	-2.008485991485598	-0.514333083066117	-4.895334091258599	-3.942805744896754	-641.8759948770546	59.77148658591869	0.08925901672338758	0.4699532865677329	-0.6550788358414299	-0.5165529240891005	0.009291005558793182	-0.4582630137163191	1.427985331146088	-0.4860671030279765	-0.4860671030279896	0.4022816002594744	-0.01032137688188254	-0.1618205596705195	0.001904398476348608	1.657568819169767e-07	1.983504270197385e-07	-8.162833304842185e-07	1.317860781719695e-06	-2.869957924599181e-08	3.236149329459289e-07	-6.723395850291105e-07
1.55	-0.2092210628097103	0.01344042866579562	0.8664307945880847	0.7893785847840925	-0.2247244159965565	-0.1575262291460432	-0.2708381482200527	0.5640827115079328	0.5640827115079906	0.05119667132869556	0.1745277776440947	0.1468502210963872	0.03160022293169623	0.5940569043768927	0.273279832943544	0.3809631621312937	-2.070712541411588	0.01071513550822613	-0.3142645013154866	0.7705946311546326	-1.779448851065031	-1.779448851064997	0.3007710830240423	3.378037680628656e-05	-0.3888088111289404	-0.08420952387122685	-0.1096662372161873	-0.03142491084019169	0.004745935560321508	-0.2793015387335481	0.1233522005684004	-0.01233249556682136	0.1453046673044765	-38.1537296934447	-1.077997078147155	-0.6937591687232767	-4.97042813283977	-4.156560618249859	-638.1919960547724	59.8366297747385	0.04449572412443355	0.4440150608357118	-0.6997367052308839	-0.357917341973336	-0.02127741496961172	-0.4326557988638505	1.341082394857355	-0.3335397342362143	-0.3335397342424258	0.4572307372438328	0.00595756567065499	-0.1332519387436616	-0.02741043013570443	1.746694702636462e-07	1.963063973277354e-07	-9.29961925847502e-07	1.305882373082587e-06	-1.53343281346069e-08	3.321526358858887e-07	-7.31219814041166e-07
